<svg xmlns="http://www.w3.org/2000/svg" width="64.0" height="64.0" viewBox="0 0 64.0 64.0">
  <g>

    <path d="M28.438,48.619L20.715,52.435C33.348,63.421 42.959,63.86 47.833,58.159C39.631,59.135 31.486,52.206 28.438,48.619Z" fill="#1b1b1c" stroke="#0500ff" stroke-width="0.24807" />
    <path d="M4.44,37.322L9.068,34.407C6.602,25.323 5.908,11.263 16.119,9.103C11.956,14.235 13.953,25.09 15.471,29.876L18.319,28.074L22.135,48.761L4.44,37.322Z" fill="#1b1b1c" stroke="#0500ff" stroke-width="0.24807" />
    <g>

      <path d="M32.975,31.46m-23.979,-8.354a25.392,25.392 64.209,1 1,47.957 16.709a25.392,25.392 64.209,1 1,-47.957 -16.709" fill="#000000" />
    </g>
    <path d="M37.19,27.674C36.328,25.901 35.14,25.704 33.888,26.053L32.837,23.529L31.923,23.934L32.945,26.392C32.705,26.498 32.463,26.615 32.222,26.731L31.193,24.257L30.279,24.662L31.329,27.185C31.134,27.28 30.942,27.372 30.753,27.456L30.749,27.448L29.488,28.006L30.171,29.647C30.171,29.647 30.837,29.327 30.835,29.352C31.205,29.189 31.476,29.496 31.641,29.793L32.838,32.669C32.863,32.658 32.897,32.645 32.939,32.637L32.842,32.679L34.518,36.708C34.583,36.911 34.645,37.254 34.387,37.369C34.405,37.382 33.722,37.663 33.722,37.663L34.304,39.579L35.494,39.052C35.628,38.993 35.762,38.936 35.895,38.881L35.895,38.88C35.981,38.844 36.066,38.808 36.151,38.772L37.213,41.325L38.127,40.921L37.076,38.395C37.33,38.293 37.574,38.189 37.811,38.083L38.857,40.598L39.771,40.193L38.711,37.644C40.186,36.815 40.991,35.688 40.115,33.204C39.41,31.203 38.501,30.573 37.482,30.607C37.822,29.918 37.821,28.972 37.19,27.674L37.19,27.674ZM38.182,33.7C38.911,35.451 37.258,36.137 36.502,36.451L36.502,36.451C36.435,36.479 36.374,36.504 36.323,36.527L34.916,33.144C34.978,33.116 35.053,33.08 35.137,33.038C35.891,32.668 37.437,31.91 38.182,33.699L38.182,33.7ZM34.423,31.532C35.055,31.273 36.433,30.707 35.771,29.116C35.094,27.488 33.808,28.127 33.18,28.439C33.11,28.474 33.047,28.505 32.995,28.528L34.271,31.596C34.315,31.577 34.366,31.556 34.423,31.532Z" fill="#ffffff" />
    <path d="M47.646,32.015C50.12,42.405 46.537,50.741 39.692,50.665C32.847,50.589 25.275,42.088 22.812,31.725C20.338,21.335 23.904,13.005 30.766,13.075C37.638,13.171 45.182,21.652 47.646,32.015Z" fill="#f6921a" />
    <path d="M38.893,27.246C38.128,24.73 36.506,23.876 34.624,23.597L33.788,20.106L32.382,20.075L33.186,23.484C32.807,23.479 32.439,23.501 32.077,23.49L31.263,20.053L29.858,20.022L30.693,23.512C30.39,23.508 30.098,23.531 29.812,23.521L27.876,23.482L28.408,25.746C28.408,25.746 29.441,25.739 29.424,25.746C29.997,25.766 30.301,26.241 30.458,26.679L31.397,30.661C31.44,30.675 31.489,30.656 31.548,30.663C31.505,30.649 31.456,30.669 31.397,30.661L32.715,36.247C32.748,36.516 32.754,36.953 32.359,36.954C32.386,36.975 31.343,36.954 31.343,36.954L31.664,39.491L33.497,39.508C33.843,39.526 34.178,39.517 34.508,39.541L35.338,43.065L36.744,43.097L35.908,39.607C36.297,39.639 36.676,39.643 37.027,39.628L37.852,43.091L39.258,43.123L38.428,39.599C40.747,39.421 42.179,38.533 41.592,35.194C41.114,32.501 39.989,31.29 38.539,30.774C39.209,30.192 39.446,29.094 38.893,27.246ZM38.715,34.78C39.34,37.415 36.284,37.072 35.327,37.08L34.226,32.411C35.183,32.403 38.064,32.031 38.715,34.78ZM36.499,28.175C37.068,30.581 34.511,30.258 33.721,30.262L32.717,26.024C33.507,26.02 35.902,25.655 36.499,28.175Z" fill="#ffffff" />
    <path d="M37.19,27.674C36.329,25.9 35.14,25.704 33.888,26.053L32.837,23.529L31.923,23.934L32.946,26.392C32.706,26.498 32.463,26.615 32.223,26.731L31.193,24.257L30.28,24.662L31.329,27.185C31.134,27.28 30.942,27.372 30.753,27.456L30.75,27.448L29.488,28.006L30.171,29.647C30.171,29.647 30.838,29.326 30.835,29.352C31.205,29.188 31.476,29.496 31.641,29.793L32.838,32.668C32.863,32.657 32.897,32.644 32.939,32.636L32.843,32.679L34.518,36.708C34.584,36.911 34.645,37.254 34.387,37.369C34.406,37.382 33.722,37.663 33.722,37.663L34.304,39.579L35.494,39.052C35.629,38.993 35.763,38.936 35.895,38.88L35.895,38.88C35.981,38.844 36.066,38.808 36.151,38.772L37.214,41.325L38.127,40.921L37.076,38.395C37.33,38.293 37.574,38.189 37.811,38.083L38.857,40.598L39.771,40.193L38.711,37.644C40.186,36.815 40.991,35.688 40.115,33.204C39.41,31.203 38.501,30.573 37.482,30.607C37.823,29.918 37.822,28.972 37.19,27.674L37.19,27.674ZM38.182,33.699C38.911,35.451 37.258,36.137 36.503,36.451C36.435,36.479 36.374,36.504 36.324,36.527L34.916,33.144C34.979,33.116 35.053,33.08 35.137,33.038C35.891,32.668 37.437,31.91 38.183,33.699L38.182,33.699ZM34.424,31.532C35.056,31.273 36.433,30.707 35.771,29.116C35.094,27.488 33.808,28.127 33.18,28.439C33.11,28.474 33.047,28.505 32.995,28.528L34.272,31.596C34.315,31.577 34.366,31.556 34.424,31.532Z" fill="#ffffff" />
    <path d="M24.258,36.272a19.692,11.821 68.138,1 0,21.942 -8.804a19.692,11.821 68.138,1 0,-21.942 8.804z" fill="#687ee3" />
    <path d="M37.822,38.333L40.376,44.698L40.666,31.81L37.822,38.333Z" fill="#d2d8ec" />
    <path d="M33.882,28.51L37.169,36.704L40.012,30.181L33.882,28.51Z" fill="#c4c8d8" />
    <path d="M30.097,19.077L33.882,28.511L40.012,30.182L30.097,19.077Z" fill="#d0d6ea" />
    <path d="M37.822,38.333L40.376,44.698L31.26,35.584L37.822,38.333Z" fill="#dee2f6" />
    <path d="M33.882,28.51L37.169,36.704L30.606,33.955L33.882,28.51Z" fill="#d2d8ec" />
    <path d="M30.097,19.077L33.882,28.511L30.606,33.956L30.097,19.077Z" fill="#dee2f6" />
    <path d="M23.954,36.394a19.692,11.985 68.138,1 0,22.247 -8.926a19.692,11.985 68.138,1 0,-22.247 8.926z" fill="#000000" />
    <path d="M27.739,25.109L30.154,19.789L35.576,21.965L34.691,23.927L31.265,22.558L29.735,25.915L27.739,25.109ZM37.472,26.69L35.476,25.884L33.946,29.241L30.521,27.872L29.635,29.834L30.746,32.603L34.172,33.972L36.068,38.698L38.064,39.504L38.949,37.542L37.053,32.816L38.583,29.459L37.472,26.69ZM40.479,34.185L39.368,31.416L38.483,33.378L39.594,36.147L40.479,34.185ZM41.894,34.753L40.365,38.11L41.475,40.879L43.89,35.559L40.883,28.065L39.998,30.027L41.894,34.753ZM36.106,24.495L38.102,25.301L39.213,28.07L40.098,26.108L38.987,23.339L36.991,22.533L36.106,24.495ZM36.863,40.679L37.974,43.447L39.97,44.254L40.855,42.291L39.744,39.523L38.859,41.485L36.863,40.679ZM32.642,37.329L34.638,38.135L33.527,35.367L31.531,34.56L32.642,37.329ZM31.165,26.477L33.161,27.284L34.046,25.322L32.05,24.515L31.165,26.477ZM28.22,29.266L29.105,27.304L27.109,26.498L26.224,28.46L27.335,31.229L29.331,32.035L28.22,29.266ZM30.116,33.992L28.12,33.186L31.127,40.68L36.549,42.855L35.438,40.087L32.012,38.718L30.116,33.992Z" fill="#f0b90b" />
    <path d="M48.494,38.613C48.552,28.915 42.68,18.035 35.381,14.322L35.382,14.323C39.194,16.262 43.988,21.468 46.235,27.701L24.372,36.411C26.734,42.169 30.681,47.159 35.167,49.443C42.465,53.158 48.437,48.308 48.494,38.613ZM23.229,33.145C23.461,33.89 23.699,34.607 23.925,35.261C23.669,34.563 23.437,33.857 23.229,33.145ZM23.009,19.194C23.165,18.776 23.339,18.358 23.533,17.941C23.554,17.897 23.574,17.853 23.595,17.81C23.378,18.244 23.183,18.706 23.009,19.194ZM33.881,13.673C33.4,13.509 32.814,13.336 32.168,13.212C32.726,13.311 33.298,13.464 33.881,13.673Z" fill="currentColor" />
    <path d="M24.835,42.418L22.287,43.455C24.899,47.765 28.296,51.294 32.02,53.19C35.201,54.808 38.159,55.005 40.604,54.009L43.152,52.973C40.705,53.965 37.746,53.771 34.567,52.154C30.843,50.258 27.448,46.726 24.835,42.418Z" fill="#1b1b1c" />
    <path d="M22.064,36.824C21.62,35.703 21.235,34.561 20.904,33.402L18.357,34.439C18.687,35.597 19.075,36.74 19.516,37.86L22.064,36.824Z" fill="#1b1b1c" />
    <path d="M37.754,53.326C44.569,54.85 49.717,49.413 49.775,39.795C49.844,28.73 43.146,16.323 34.814,12.082C26.485,7.842 19.676,13.373 19.61,24.438C19.545,35.131 25.795,47.076 33.73,51.695C32.851,51.182 31.992,50.576 31.161,49.897L32.274,47.545C26.379,42.784 22.005,33.529 22.057,25.156C22.115,15.458 28.083,10.607 35.383,14.326L35.381,14.322C42.68,18.035 48.552,28.915 48.494,38.613C48.463,43.868 46.694,47.699 43.919,49.515L44.371,52.349C42.497,53.509 40.236,53.88 37.754,53.326Z" fill="currentColor" />
    <path d="M30.483,45.913C29.77,45.187 29.087,44.398 28.441,43.554L26.834,45.366C27.563,46.321 28.334,47.218 29.137,48.043L30.483,45.913Z" fill="#ffffff" />
    <path d="M43.151,52.975L40.603,54.012C38.157,55.004 35.198,54.81 32.019,53.193C23.687,48.952 16.99,36.544 17.059,25.48C17.1,18.637 19.719,13.91 23.681,12.3L26.229,11.263C22.267,12.874 19.648,17.598 19.606,24.443C19.538,35.508 26.235,47.916 34.567,52.156C37.748,53.775 40.706,53.971 43.151,52.975Z" fill="#00000000" stroke="#0500ff" stroke-width="0.276002" />
    <path d="M34.875,11.959C30.671,9.82 26.826,10.136 24.023,12.413C21.229,14.685 19.503,18.882 19.469,24.44C19.435,29.999 21.099,35.889 23.816,40.922C26.532,45.953 30.307,50.14 34.505,52.277C38.708,54.416 42.553,54.099 45.356,51.822C48.151,49.551 49.877,45.355 49.91,39.799C49.944,34.238 48.279,28.347 45.562,23.314C42.847,18.282 39.072,14.096 34.875,11.959ZM19.745,24.441C19.778,18.932 21.489,14.829 24.197,12.628C26.898,10.433 30.622,10.104 34.75,12.205C38.882,14.308 42.621,18.445 45.319,23.445C48.017,28.443 49.668,34.289 49.634,39.797C49.602,45.305 47.89,49.407 45.182,51.608C42.481,53.802 38.757,54.131 34.63,52.031C30.497,49.927 26.757,45.79 24.059,40.791C21.361,35.793 19.711,29.947 19.745,24.441L19.745,24.441Z" fill="#0500ff" />
    <path d="M49.772,39.798C49.839,28.73 43.142,16.322 34.813,12.082C26.481,7.841 19.674,13.373 19.607,24.441C19.538,35.505 26.236,47.913 34.568,52.154C42.897,56.393 49.706,50.863 49.772,39.798Z" fill="#00000000" stroke="#0500ff" stroke-width="0.276002" />
    <path d="M22.135,48.761L4.44,37.323L3.272,38.753L20.769,49.52L22.135,48.761Z" fill="currentColor" stroke="#0500ff" stroke-width="0.24807" />
    <path d="M16.119,9.103C5.909,11.263 6.603,25.323 9.069,34.407L7.455,35.424C-0.373,2.502 20.341,4.977 31.677,10.33L32.509,12.502C25.224,9.143 19.917,8.3 16.119,9.103Z" fill="currentColor" />
    <path d="M40.927,4.016L31.677,10.329C25.388,7.36 16.213,5.276 10.626,9.63C20.117,0.11 34.781,1.921 40.927,4.016Z" fill="currentColor" />
    <path d="M48.899,28.665L47.693,29.696C58.278,55.473 45.151,73.684 20.715,52.435L20.364,54.359C38.662,71.392 48.866,59.86 48.866,59.86C57.44,49.278 52.119,34.421 48.899,28.665Z" fill="currentColor" stroke="#0500ff" stroke-width="0.24807" />
    <path d="M60.062,19.719L39.52,9.341L44.83,32.143L48.9,28.666C52.12,34.421 57.441,49.279 48.867,59.861C65.113,47.715 60.857,29.814 56.699,22.381L60.062,19.719Z" fill="currentColor" stroke="#0500ff" stroke-width="0.24807" />
    <path d="M16.12,9.103C5.909,11.262 6.603,25.323 9.069,34.407L7.455,35.423C-0.373,2.502 20.341,4.977 31.677,10.329L32.509,12.501C25.224,9.143 19.917,8.3 16.12,9.103Z" fill="currentColor" stroke="#0500ff" stroke-width="0.24807" />
    <path d="M40.927,4.016L31.677,10.329C25.388,7.36 16.213,5.276 10.626,9.63C20.117,0.11 34.781,1.921 40.927,4.016Z" fill="currentColor" stroke="#0500ff" stroke-width="0.24807" />
    <path d="M40.927,4.017L31.677,10.33L32.509,12.501L41.765,6.267L40.927,4.017Z" fill="currentColor" stroke="#0500ff" stroke-width="0.24807" />
    <path d="M44.828,32.143L39.519,9.341L38.142,10.374L42.563,31.268L44.828,32.143Z" fill="currentColor" stroke="#0500ff" stroke-width="0.24807" />
  </g>
</svg>
